<?xml version="1.0" encoding="UTF-8"?>
<!DOCTYPE svg PUBLIC "-//W3C//DTD SVG 1.1//EN" "http://www.w3.org/Graphics/SVG/1.1/DTD/svg11.dtd">
<!-- Creator: CorelDRAW -->
<svg xmlns="http://www.w3.org/2000/svg" xml:space="preserve" width="43.3493mm" height="43.3493mm" version="1.1" style="shape-rendering:geometricPrecision; text-rendering:geometricPrecision; image-rendering:optimizeQuality; fill-rule:evenodd; clip-rule:evenodd"
viewBox="0 0 4334.92 4334.92"
 xmlns:xlink="http://www.w3.org/1999/xlink"
 xmlns:xodm="http://www.corel.com/coreldraw/odm/2003">
 <defs>
  <style type="text/css">
   <![CDATA[
    .fil1 {fill:black}
    .fil0 {fill:#FDDC06}
   ]]>
  </style>
 </defs>
 <g id="Camada_x0020_1">
  <metadata id="CorelCorpID_0Corel-Layer"/>
  <rect class="fil0" x="-0" y="-0" width="4334.92" height="4334.92"/>
  <path class="fil1" d="M2211.8 709.3c532.27,0 985.23,339.24 1154.75,813.25l-652.02 0c-119.32,-145.14 -300.22,-237.7 -502.73,-237.7 -359.29,0 -650.56,291.27 -650.56,650.52 0,21.16 1.08,42.1 3.03,62.72l-569.9 82.96c-5.65,-47.78 -8.64,-96.36 -8.64,-145.68 0,-677.13 548.93,-1226.07 1226.07,-1226.07zm-897.89 2157.07l3.65 23.31c11.59,73.86 93.4,133.5 167.25,121.9 68.33,-10.67 117.41,-41.78 138.07,-105.88 22.35,-69.4 0.12,-141.3 -59.53,-183.16 -109.38,-76.7 -269.61,15.25 -249.44,143.83zm-416.86 724.84l426.15 -581.74c-26.12,-34.1 -54.23,-63.98 -63.06,-120.32 -30.53,-194.57 188.42,-318.43 338.35,-209.16 69.44,50.62 102.51,141.52 81.62,226.05 -12.95,52.31 -43.71,95.25 -88.49,125.59 -82.96,56.23 -151.7,36.14 -221.22,12.25l-426.11 581.74 1227.95 -454.11 -8.6 -584.23c-279.56,-23.16 -514.83,-221.84 -585.42,-492.18l-581.74 84.65 -99.43 1411.46zm1364.52 -1007.16c148.4,-11.18 282.82,-72.2 386.71,-166.34l-436.48 -482.34 650.52 0 0 0.43 575.55 0c-0.23,657.43 -517.87,1193.84 -1167.81,1224.26l-8.49 -576.01zm386.71 -166.34l0.66 -0.57 0.69 -0.62 0.65 -0.61 0.65 -0.62 -0.65 0.62 -0.65 0.61 -0.69 0.62 -0.66 0.57z"/>
 </g>
</svg>
