<?xml version="1.0" encoding="UTF-8"?>
<!DOCTYPE svg PUBLIC "-//W3C//DTD SVG 1.1//EN" "http://www.w3.org/Graphics/SVG/1.1/DTD/svg11.dtd">
<!-- Creator: CorelDRAW -->
<svg xmlns="http://www.w3.org/2000/svg" xml:space="preserve" width="43.3493mm" height="43.3493mm" version="1.1" style="shape-rendering:geometricPrecision; text-rendering:geometricPrecision; image-rendering:optimizeQuality; fill-rule:evenodd; clip-rule:evenodd"
viewBox="0 0 405.63 405.63"
 xmlns:xlink="http://www.w3.org/1999/xlink"
 xmlns:xodm="http://www.corel.com/coreldraw/odm/2003">
 <defs>
  <style type="text/css">
   <![CDATA[
    .fil0 {fill:black}
    .fil1 {fill:white}
   ]]>
  </style>
 </defs>
 <g id="Camada_x0020_1">
  <metadata id="CorelCorpID_0Corel-Layer"/>
  <rect class="fil0" x="0" y="-0" width="405.63" height="405.63"/>
  <g id="_105553170456096">
   <path class="fil1" d="M206.72 74.45c46.86,0 86.73,29.86 101.65,71.59l-57.4 0c-10.5,-12.77 -26.43,-20.92 -44.26,-20.92 -31.63,0 -57.27,25.64 -57.27,57.27 0,1.86 0.09,3.7 0.27,5.52l-50.17 7.3c-0.5,-4.21 -0.76,-8.48 -0.76,-12.82 0,-59.61 48.32,-107.93 107.93,-107.93zm4.38 165.03c13.17,-1 25.1,-6.45 34.27,-14.85 -0.08,0.07 -0.15,0.14 -0.23,0.21l-38.43 -42.46 57.27 0 -0 0.04 50.66 0c-0.02,57.87 -45.59,105.09 -102.8,107.77l-0.74 -50.71z"/>
   <path class="fil1" d="M90.98 328.15l37.51 -51.21c-2.3,-3 -4.77,-5.63 -5.55,-10.59 -2.69,-17.13 16.59,-28.03 29.79,-18.41 6.11,4.45 9.02,12.46 7.18,19.9 -1.14,4.61 -3.85,8.38 -7.79,11.05 -7.3,4.95 -13.36,3.18 -19.48,1.08l-37.51 51.21 108.1 -39.98 -0.76 -51.43c-24.61,-2.04 -45.32,-19.53 -51.54,-43.33l-51.21 7.45 -8.75 124.25z"/>
   <path class="fil1" d="M127.68 264.34l0.32 2.05c1.02,6.5 8.22,11.75 14.73,10.73 6.01,-0.94 10.33,-3.68 12.15,-9.32 1.97,-6.11 0.01,-12.44 -5.24,-16.12 -9.63,-6.75 -23.73,1.34 -21.96,12.66z"/>
   <path class="fil1" d="M206.72 74.45c46.86,0 86.73,29.86 101.65,71.59l-57.4 0c-10.5,-12.77 -26.43,-20.92 -44.26,-20.92 -31.63,0 -57.27,25.64 -57.27,57.27 0,1.86 0.09,3.7 0.27,5.52l-50.17 7.3c-0.5,-4.21 -0.76,-8.48 -0.76,-12.82 0,-59.61 48.32,-107.93 107.93,-107.93zm4.38 165.03c13.17,-1 25.1,-6.45 34.27,-14.85 -0.08,0.07 -0.15,0.14 -0.23,0.21l-38.43 -42.46 57.27 0 -0 0.04 50.66 0c-0.02,57.87 -45.59,105.09 -102.8,107.77l-0.74 -50.71z"/>
  </g>
 </g>
</svg>
