<?xml version="1.0" encoding="UTF-8"?>
<!DOCTYPE svg PUBLIC "-//W3C//DTD SVG 1.1//EN" "http://www.w3.org/Graphics/SVG/1.1/DTD/svg11.dtd">
<!-- Creator: CorelDRAW -->
<svg xmlns="http://www.w3.org/2000/svg" xml:space="preserve" width="43.8576mm" height="15.5604mm" version="1.1" style="shape-rendering:geometricPrecision; text-rendering:geometricPrecision; image-rendering:optimizeQuality; fill-rule:evenodd; clip-rule:evenodd"
viewBox="0 0 409.27 145.21"
 xmlns:xlink="http://www.w3.org/1999/xlink"
 xmlns:xodm="http://www.corel.com/coreldraw/odm/2003">
 <defs>
  <style type="text/css">
   <![CDATA[
    .fil1 {fill:white}
    .fil0 {fill:white;fill-rule:nonzero}
   ]]>
  </style>
 </defs>
 <g id="Camada_x0020_1">
  <metadata id="CorelCorpID_0Corel-Layer"/>
  <g id="_105553128727936">
   <g>
    <polygon class="fil0" points="246.97,29.31 229.76,29.31 229.76,64.91 203.59,29.31 186.83,29.31 186.83,92.72 204.04,92.72 204.04,57.03 230.22,92.72 246.97,92.72 "/>
    <path class="fil0" d="M178.68 77.41l-32.34 0 0 -9.15 30.07 0 0 -15.31 -30.07 0 0 -8.33 32.34 0 0 -15.31 -49.5 0c4.41,9.66 6.87,20.39 6.87,31.7 0,11.31 -2.46,22.05 -6.87,31.7l49.5 0 0 -15.31z"/>
    <polygon class="fil0" points="273.2,29.31 255.99,29.31 255.99,92.72 273.2,92.72 "/>
    <path class="fil0" d="M405.71 34.88c-10.96,-5.8 -18.48,-6.7 -26.72,-6.7 -15.22,0 -25.36,8.15 -25.72,20.29 -0.27,11.14 5.8,17.48 20.38,19.93l2.35 0.45c7.88,1.36 11.78,1.9 11.78,5.25 0,3.08 -3.35,4.35 -7.97,4.35 -9.6,0 -15.67,-3.44 -20.74,-6.52l-8.42 14.04c7.25,5.16 17.57,7.88 28.99,7.88 13.41,0 26.99,-5.98 26.99,-21.92 0,-9.78 -6.7,-16.03 -19.75,-18.57l-2.08 -0.36c-6.43,-1.27 -12.86,-1.63 -12.86,-5.25 0,-2.81 3.53,-4.08 8.15,-4.08 7.79,0 14.04,2.9 18.21,5.25l7.43 -14.04z"/>
    <path class="fil0" d="M124.51 107.58c-0.02,0.05 -0.05,0.1 -0.09,0.13 -0.04,0.03 -0.09,0.04 -0.14,0.04l-0.47 0c-0.14,0 -0.21,-0.05 -0.21,-0.16 0,-0.02 0,-0.04 0,-0.04 0,-0.02 0,-0.03 0.01,-0.04 0,-0.01 0,-0.02 0.01,-0.03l2.58 -6.22c0.01,-0.01 0.02,-0.03 0.03,-0.04 0.01,-0.02 0.02,-0.04 0.04,-0.05 0.01,-0.02 0.04,-0.04 0.06,-0.04 0.03,-0.01 0.06,-0.02 0.12,-0.02l0.29 0c0.04,0 0.08,0.01 0.11,0.02 0.03,0.01 0.04,0.03 0.06,0.04 0.02,0.02 0.03,0.04 0.04,0.05 0.01,0.02 0.02,0.04 0.03,0.04l2.56 6.22c0,0.02 0,0.03 0.01,0.04 0,0.02 0,0.03 0.01,0.04 0,0.01 0,0.02 0,0.03 0,0.11 -0.07,0.16 -0.21,0.16l-0.47 0c-0.06,0 -0.11,-0.02 -0.14,-0.04 -0.04,-0.03 -0.07,-0.07 -0.09,-0.13l-0.49 -1.23 -3.14 0c-0.11,0.27 -0.21,0.5 -0.29,0.72 -0.09,0.22 -0.15,0.39 -0.2,0.51zm0.84 -2.1l2.44 0 -1.21 -3.06 -1.23 3.06z"/>
    <path class="fil0" d="M136.02 105.01c0,-0.13 0.06,-0.2 0.2,-0.2l0.46 0c0.05,0 0.1,0.02 0.14,0.05 0.04,0.03 0.06,0.08 0.06,0.14l0 2c0,0.04 -0.01,0.07 -0.02,0.11 -0.02,0.03 -0.04,0.05 -0.08,0.07l-0.04 0.03c-0.28,0.21 -0.59,0.36 -0.92,0.47 -0.34,0.11 -0.71,0.16 -1.09,0.16 -0.32,0 -0.63,-0.04 -0.91,-0.13 -0.3,-0.08 -0.56,-0.19 -0.81,-0.34 -0.25,-0.15 -0.48,-0.33 -0.69,-0.54 -0.21,-0.21 -0.39,-0.44 -0.54,-0.69 -0.14,-0.25 -0.26,-0.53 -0.34,-0.81 -0.08,-0.3 -0.12,-0.59 -0.12,-0.91 0,-0.31 0.04,-0.62 0.12,-0.9 0.08,-0.29 0.2,-0.56 0.35,-0.81 0.14,-0.25 0.32,-0.48 0.53,-0.7 0.21,-0.21 0.44,-0.39 0.69,-0.54 0.26,-0.14 0.53,-0.26 0.81,-0.34 0.3,-0.08 0.6,-0.13 0.91,-0.13 0.37,0 0.73,0.05 1.07,0.17 0.34,0.11 0.65,0.27 0.95,0.47 0.04,0.03 0.06,0.05 0.08,0.09 0.02,0.03 0.04,0.06 0.04,0.09 0,0.04 -0.02,0.08 -0.04,0.11l-0.24 0.39c-0.05,0.07 -0.1,0.11 -0.15,0.11 -0.03,0 -0.04,0 -0.07,-0.01 -0.03,-0.02 -0.05,-0.03 -0.09,-0.05 -0.21,-0.15 -0.45,-0.28 -0.7,-0.36 -0.25,-0.09 -0.52,-0.13 -0.81,-0.13 -0.38,0 -0.72,0.07 -1.03,0.21 -0.31,0.14 -0.59,0.33 -0.82,0.56 -0.22,0.24 -0.41,0.51 -0.54,0.82 -0.13,0.3 -0.2,0.63 -0.2,0.96 0,0.36 0.06,0.69 0.2,1 0.13,0.3 0.31,0.57 0.55,0.81 0.23,0.22 0.5,0.4 0.81,0.54 0.3,0.13 0.63,0.2 0.98,0.2 0.21,0 0.44,-0.04 0.65,-0.11 0.21,-0.07 0.44,-0.15 0.66,-0.25l0 -1.61z"/>
    <path class="fil0" d="M143.61 101.09c0.13,0 0.21,0.07 0.21,0.21l0 0.44c0,0.06 -0.02,0.11 -0.05,0.15 -0.03,0.04 -0.09,0.06 -0.16,0.06l-3.61 0 0 1.84 2.84 0c0.05,0 0.1,0.01 0.14,0.04 0.04,0.03 0.05,0.08 0.05,0.16l0 0.46c0,0.05 -0.02,0.1 -0.04,0.14 -0.04,0.04 -0.09,0.06 -0.15,0.06l-2.84 0 0 2.2 3.63 0c0.13,0 0.21,0.07 0.21,0.21l0 0.47c0,0.13 -0.06,0.2 -0.2,0.2l-4.31 0c-0.13,0 -0.2,-0.06 -0.2,-0.19l0 -6.26c0,-0.13 0.06,-0.21 0.2,-0.21l4.29 0zm-2.13 -2.18c0.03,-0.03 0.06,-0.04 0.1,-0.04 0.04,0 0.06,0.01 0.09,0.04l1.2 1.2c0.03,0.02 0.04,0.05 0.04,0.1 0,0.04 -0.02,0.06 -0.04,0.09l-0.21 0.22c-0.05,0.04 -0.09,0.05 -0.12,0.05 -0.04,0 -0.06,-0.02 -0.1,-0.04l-0.86 -0.82 -0.87 0.82c-0.04,0.03 -0.06,0.04 -0.1,0.04 -0.04,0 -0.08,-0.02 -0.1,-0.04l-0.22 -0.22c-0.03,-0.02 -0.04,-0.04 -0.04,-0.1 0,-0.04 0.01,-0.08 0.04,-0.1l1.19 -1.2z"/>
    <path class="fil0" d="M150.8 107.75c-0.07,0 -0.13,-0.04 -0.17,-0.1l-3.91 -5.24 0 5.14c0,0.13 -0.07,0.2 -0.21,0.2l-0.45 0c-0.13,0 -0.2,-0.07 -0.2,-0.2l0 -6.25c0,-0.06 0.02,-0.11 0.05,-0.15 0.04,-0.04 0.08,-0.05 0.14,-0.05l0.6 0c0.07,0 0.13,0.04 0.19,0.1l3.81 5.07 0 -5.01c0.02,-0.11 0.08,-0.16 0.2,-0.16l0.46 0c0.05,0 0.1,0.02 0.14,0.05 0.05,0.04 0.07,0.08 0.07,0.14l0 6.26c0,0.13 -0.07,0.2 -0.22,0.2l-0.51 0z"/>
    <path class="fil0" d="M159.11 101.65c0.03,0.03 0.05,0.05 0.08,0.09 0.02,0.03 0.03,0.06 0.03,0.09 0,0.04 -0.01,0.08 -0.04,0.11l-0.23 0.39c-0.05,0.07 -0.11,0.11 -0.16,0.11 -0.02,0 -0.04,0 -0.07,-0.01 -0.02,-0.02 -0.05,-0.03 -0.08,-0.05 -0.21,-0.15 -0.45,-0.27 -0.68,-0.35 -0.24,-0.08 -0.49,-0.13 -0.75,-0.14 -0.39,0 -0.74,0.07 -1.07,0.21 -0.32,0.14 -0.61,0.33 -0.84,0.56 -0.24,0.23 -0.42,0.5 -0.55,0.81 -0.13,0.31 -0.21,0.64 -0.21,0.98 0,0.37 0.07,0.7 0.21,1.01 0.13,0.31 0.32,0.57 0.55,0.8 0.23,0.22 0.5,0.4 0.81,0.53 0.31,0.13 0.63,0.19 0.97,0.19 0.12,0 0.24,-0.01 0.37,-0.03 0.12,-0.02 0.24,-0.05 0.37,-0.09 0.13,-0.04 0.26,-0.1 0.4,-0.17 0.13,-0.06 0.28,-0.15 0.44,-0.25 0.05,-0.03 0.1,-0.04 0.13,-0.04 0.05,0 0.11,0.04 0.15,0.11l0.25 0.42c0.02,0.04 0.04,0.08 0.04,0.11 0,0.07 -0.04,0.13 -0.11,0.17 -0.29,0.21 -0.59,0.37 -0.93,0.48 -0.34,0.12 -0.7,0.17 -1.09,0.17 -0.31,0 -0.62,-0.04 -0.91,-0.13 -0.29,-0.08 -0.56,-0.19 -0.81,-0.34 -0.25,-0.15 -0.47,-0.33 -0.69,-0.54 -0.21,-0.21 -0.39,-0.44 -0.53,-0.69 -0.15,-0.25 -0.26,-0.53 -0.34,-0.81 -0.08,-0.3 -0.13,-0.59 -0.13,-0.91 0,-0.31 0.04,-0.62 0.13,-0.9 0.08,-0.3 0.19,-0.56 0.34,-0.81 0.15,-0.26 0.33,-0.49 0.54,-0.7 0.21,-0.21 0.44,-0.39 0.69,-0.54 0.25,-0.14 0.53,-0.26 0.82,-0.34 0.29,-0.08 0.6,-0.13 0.91,-0.13 0.38,0 0.73,0.05 1.06,0.16 0.33,0.12 0.64,0.28 0.95,0.48z"/>
    <path class="fil0" d="M161.29 101.29c0,-0.05 0.02,-0.1 0.04,-0.14 0.04,-0.04 0.09,-0.05 0.15,-0.05l0.47 0c0.05,0 0.1,0.02 0.14,0.05 0.04,0.04 0.06,0.08 0.06,0.14l0 6.25c0,0.13 -0.07,0.2 -0.21,0.2l-0.47 0c-0.13,0 -0.2,-0.06 -0.2,-0.2l0 -6.25z"/>
    <path class="fil0" d="M165.12 107.58c-0.02,0.05 -0.05,0.1 -0.09,0.13 -0.04,0.03 -0.09,0.04 -0.14,0.04l-0.47 0c-0.14,0 -0.21,-0.05 -0.21,-0.16 0,-0.02 0,-0.04 0,-0.04 0,-0.02 0,-0.03 0.01,-0.04 0,-0.01 0,-0.02 0.01,-0.03l2.58 -6.22c0.01,-0.01 0.02,-0.03 0.03,-0.04 0.01,-0.02 0.02,-0.04 0.04,-0.05 0.01,-0.02 0.04,-0.04 0.06,-0.04 0.03,-0.01 0.06,-0.02 0.12,-0.02l0.3 0c0.04,0 0.08,0.01 0.11,0.02 0.03,0.01 0.04,0.03 0.06,0.04 0.02,0.02 0.03,0.04 0.04,0.05 0.01,0.02 0.02,0.04 0.03,0.04l2.56 6.22c0,0.02 0,0.03 0.01,0.04 0,0.02 0,0.03 0.01,0.04 0,0.01 0,0.02 0,0.03 0,0.11 -0.07,0.16 -0.21,0.16l-0.47 0c-0.06,0 -0.11,-0.02 -0.14,-0.04 -0.04,-0.03 -0.07,-0.07 -0.09,-0.13l-0.49 -1.23 -3.14 0c-0.11,0.27 -0.21,0.5 -0.29,0.72 -0.09,0.22 -0.15,0.39 -0.2,0.51zm0.84 -2.1l2.44 0 -1.21 -3.06 -1.23 3.06z"/>
    <path class="fil0" d="M175.95 101.31c0,-0.14 0.06,-0.21 0.21,-0.21l2.09 0c0.32,0 0.63,0.04 0.91,0.12 0.29,0.08 0.56,0.19 0.81,0.33 0.25,0.14 0.47,0.31 0.67,0.52 0.2,0.21 0.38,0.43 0.51,0.67 0.14,0.25 0.25,0.51 0.33,0.8 0.08,0.29 0.12,0.58 0.12,0.89 0,0.31 -0.04,0.6 -0.12,0.89 -0.08,0.28 -0.19,0.55 -0.34,0.8 -0.14,0.24 -0.31,0.46 -0.52,0.67 -0.21,0.2 -0.43,0.37 -0.67,0.51 -0.25,0.14 -0.52,0.26 -0.81,0.34 -0.29,0.07 -0.58,0.12 -0.89,0.12l-2.09 0c-0.05,0 -0.11,-0.02 -0.14,-0.04 -0.04,-0.03 -0.06,-0.08 -0.06,-0.15l0 -6.25zm2.28 5.58c0.36,0 0.7,-0.07 1,-0.21 0.31,-0.13 0.57,-0.31 0.8,-0.54 0.22,-0.23 0.39,-0.49 0.52,-0.8 0.13,-0.31 0.19,-0.63 0.19,-0.97 0,-0.37 -0.06,-0.7 -0.2,-0.99 -0.13,-0.3 -0.31,-0.56 -0.54,-0.77 -0.22,-0.21 -0.48,-0.38 -0.79,-0.49 -0.3,-0.12 -0.63,-0.17 -0.97,-0.17l-1.43 0 0 4.93 1.42 0z"/>
    <path class="fil0" d="M188.33 101.09c0.13,0 0.21,0.07 0.21,0.21l0 0.44c0,0.06 -0.02,0.11 -0.05,0.15 -0.03,0.04 -0.09,0.06 -0.16,0.06l-3.61 0 0 1.84 2.84 0c0.05,0 0.1,0.01 0.14,0.04 0.04,0.03 0.05,0.08 0.05,0.16l0 0.46c0,0.05 -0.02,0.1 -0.04,0.14 -0.04,0.04 -0.09,0.06 -0.15,0.06l-2.84 0 0 2.2 3.63 0c0.13,0 0.21,0.07 0.21,0.21l0 0.47c0,0.13 -0.06,0.2 -0.2,0.2l-4.31 0c-0.13,0 -0.2,-0.06 -0.2,-0.19l0 -6.26c0,-0.13 0.06,-0.21 0.2,-0.21l4.29 0z"/>
    <path class="fil0" d="M194.38 101.31c0,-0.14 0.06,-0.21 0.21,-0.21l2.22 0c0.3,0 0.57,0.05 0.82,0.16 0.25,0.12 0.47,0.27 0.65,0.46 0.19,0.19 0.33,0.41 0.44,0.66 0.1,0.25 0.15,0.52 0.15,0.8 0,0.28 -0.05,0.54 -0.15,0.79 -0.11,0.25 -0.25,0.47 -0.43,0.66 -0.19,0.19 -0.4,0.34 -0.65,0.45 -0.24,0.12 -0.52,0.17 -0.81,0.17l-1.59 0 0 2.31c0,0.13 -0.06,0.21 -0.2,0.21l-0.47 0c-0.13,0 -0.2,-0.07 -0.2,-0.21l0 -6.24zm3.64 1.85c0,-0.15 -0.04,-0.3 -0.1,-0.46 -0.06,-0.14 -0.14,-0.27 -0.26,-0.39 -0.11,-0.11 -0.23,-0.2 -0.38,-0.27 -0.15,-0.06 -0.31,-0.1 -0.47,-0.1l-1.57 0 0 2.43 1.57 0c0.16,0 0.31,-0.04 0.47,-0.1 0.14,-0.06 0.27,-0.15 0.39,-0.27 0.11,-0.11 0.2,-0.24 0.26,-0.39 0.06,-0.14 0.1,-0.3 0.1,-0.47z"/>
    <path class="fil0" d="M201.87 104.99c0,0.29 0.04,0.56 0.12,0.8 0.09,0.24 0.21,0.46 0.37,0.64 0.16,0.18 0.35,0.32 0.58,0.43 0.23,0.1 0.49,0.15 0.79,0.15 0.31,0 0.59,-0.05 0.83,-0.16 0.23,-0.1 0.43,-0.24 0.58,-0.42 0.15,-0.19 0.27,-0.39 0.34,-0.64 0.08,-0.24 0.12,-0.5 0.12,-0.79l0 -3.7c0,-0.05 0.02,-0.1 0.06,-0.14 0.04,-0.04 0.09,-0.05 0.15,-0.05l0.43 0c0.05,0 0.11,0.02 0.15,0.05 0.04,0.04 0.07,0.08 0.07,0.14l0 3.82c0,0.4 -0.07,0.78 -0.21,1.11 -0.14,0.34 -0.34,0.63 -0.59,0.87 -0.24,0.23 -0.54,0.42 -0.87,0.56 -0.33,0.14 -0.69,0.21 -1.07,0.21 -0.38,0 -0.73,-0.07 -1.06,-0.22 -0.33,-0.14 -0.63,-0.34 -0.88,-0.59 -0.24,-0.25 -0.44,-0.54 -0.58,-0.87 -0.14,-0.33 -0.22,-0.69 -0.22,-1.07l0 -3.82c0,-0.04 0.02,-0.09 0.04,-0.13 0.04,-0.04 0.08,-0.06 0.14,-0.06l0.47 0c0.04,0 0.09,0.02 0.14,0.05 0.04,0.04 0.07,0.09 0.07,0.14l0 3.7z"/>
    <path class="fil0" d="M213.46 102.9c0,0.26 -0.05,0.5 -0.15,0.73 -0.1,0.22 -0.24,0.42 -0.42,0.58 0.13,0.08 0.26,0.18 0.38,0.3 0.11,0.11 0.21,0.23 0.29,0.37 0.08,0.13 0.14,0.29 0.19,0.44 0.04,0.15 0.06,0.31 0.06,0.48 0,0.26 -0.04,0.51 -0.14,0.74 -0.1,0.23 -0.22,0.44 -0.39,0.62 -0.17,0.18 -0.37,0.32 -0.59,0.43 -0.23,0.11 -0.47,0.16 -0.74,0.16l-2.92 0c-0.06,0 -0.12,-0.02 -0.15,-0.05 -0.04,-0.03 -0.05,-0.08 -0.05,-0.14l0 -6.24c0,-0.14 0.06,-0.21 0.21,-0.21l2.62 0c0.26,0 0.5,0.04 0.73,0.13 0.21,0.1 0.41,0.22 0.57,0.39 0.16,0.16 0.3,0.35 0.39,0.57 0.09,0.21 0.14,0.46 0.14,0.72zm-3.81 1.85l0 2.13 2.27 0c0.13,0 0.27,-0.03 0.39,-0.09 0.12,-0.06 0.22,-0.14 0.31,-0.24 0.1,-0.1 0.17,-0.21 0.21,-0.35 0.05,-0.13 0.08,-0.27 0.08,-0.41 0,-0.14 -0.03,-0.27 -0.08,-0.39 -0.04,-0.13 -0.12,-0.24 -0.21,-0.33 -0.09,-0.1 -0.2,-0.17 -0.32,-0.23 -0.13,-0.05 -0.25,-0.08 -0.39,-0.08l-2.27 0zm2.93 -1.85c0,-0.13 -0.03,-0.27 -0.07,-0.39 -0.04,-0.12 -0.12,-0.21 -0.2,-0.3 -0.09,-0.09 -0.19,-0.15 -0.3,-0.2 -0.12,-0.05 -0.24,-0.07 -0.39,-0.07l-1.97 0 0 1.94 1.96 0c0.13,0 0.27,-0.03 0.39,-0.08 0.12,-0.04 0.21,-0.12 0.3,-0.21 0.08,-0.09 0.15,-0.2 0.2,-0.31 0.05,-0.13 0.08,-0.25 0.08,-0.39z"/>
    <path class="fil0" d="M219.87 106.88c0.05,0 0.1,0.02 0.13,0.05 0.04,0.04 0.06,0.09 0.06,0.15l0 0.47c0,0.05 -0.02,0.1 -0.05,0.13 -0.04,0.05 -0.09,0.06 -0.14,0.06l-3.81 0c-0.13,0 -0.2,-0.06 -0.2,-0.2l0 -6.26c0,-0.05 0.02,-0.1 0.05,-0.14 0.04,-0.04 0.09,-0.05 0.15,-0.05l0.47 0c0.05,0 0.11,0.02 0.14,0.04 0.04,0.04 0.05,0.09 0.05,0.15l0 5.59 3.14 0z"/>
    <path class="fil0" d="M221.98 101.29c0,-0.05 0.02,-0.1 0.04,-0.14 0.04,-0.04 0.09,-0.05 0.15,-0.05l0.47 0c0.05,0 0.1,0.02 0.14,0.05 0.04,0.04 0.06,0.08 0.06,0.14l0 6.25c0,0.13 -0.07,0.2 -0.21,0.2l-0.47 0c-0.13,0 -0.2,-0.06 -0.2,-0.2l0 -6.25z"/>
    <path class="fil0" d="M230.45 101.65c0.03,0.03 0.05,0.05 0.08,0.09 0.02,0.03 0.03,0.06 0.03,0.09 0,0.04 -0.01,0.08 -0.04,0.11l-0.23 0.39c-0.05,0.07 -0.11,0.11 -0.16,0.11 -0.02,0 -0.04,0 -0.07,-0.01 -0.02,-0.02 -0.05,-0.03 -0.08,-0.05 -0.22,-0.15 -0.45,-0.27 -0.68,-0.35 -0.24,-0.08 -0.49,-0.13 -0.75,-0.14 -0.39,0 -0.74,0.07 -1.07,0.21 -0.32,0.14 -0.61,0.33 -0.84,0.56 -0.24,0.23 -0.42,0.5 -0.56,0.81 -0.13,0.31 -0.21,0.64 -0.21,0.98 0,0.37 0.07,0.7 0.21,1.01 0.13,0.31 0.32,0.57 0.56,0.8 0.23,0.22 0.5,0.4 0.81,0.53 0.3,0.13 0.63,0.19 0.97,0.19 0.12,0 0.24,-0.01 0.37,-0.03 0.12,-0.02 0.24,-0.05 0.37,-0.09 0.13,-0.04 0.26,-0.1 0.4,-0.17 0.13,-0.06 0.28,-0.15 0.44,-0.25 0.05,-0.03 0.1,-0.04 0.13,-0.04 0.05,0 0.11,0.04 0.15,0.11l0.25 0.42c0.02,0.04 0.04,0.08 0.04,0.11 0,0.07 -0.04,0.13 -0.11,0.17 -0.29,0.21 -0.59,0.37 -0.93,0.48 -0.34,0.12 -0.7,0.17 -1.09,0.17 -0.31,0 -0.62,-0.04 -0.91,-0.13 -0.29,-0.08 -0.56,-0.19 -0.81,-0.34 -0.25,-0.15 -0.47,-0.33 -0.69,-0.54 -0.21,-0.21 -0.38,-0.44 -0.53,-0.69 -0.15,-0.25 -0.26,-0.53 -0.34,-0.81 -0.08,-0.3 -0.13,-0.59 -0.13,-0.91 0,-0.31 0.04,-0.62 0.13,-0.9 0.08,-0.3 0.19,-0.56 0.34,-0.81 0.15,-0.26 0.33,-0.49 0.54,-0.7 0.21,-0.21 0.44,-0.39 0.69,-0.54 0.25,-0.14 0.53,-0.26 0.81,-0.34 0.3,-0.08 0.6,-0.13 0.91,-0.13 0.38,0 0.73,0.05 1.07,0.16 0.33,0.12 0.64,0.28 0.95,0.48z"/>
    <path class="fil0" d="M232.63 101.29c0,-0.05 0.02,-0.1 0.04,-0.14 0.04,-0.04 0.09,-0.05 0.15,-0.05l0.47 0c0.05,0 0.1,0.02 0.14,0.05 0.04,0.04 0.06,0.08 0.06,0.14l0 6.25c0,0.13 -0.07,0.2 -0.21,0.2l-0.47 0c-0.13,0 -0.2,-0.06 -0.2,-0.2l0 -6.25z"/>
    <path class="fil0" d="M235.93 101.31c0,-0.14 0.06,-0.21 0.21,-0.21l2.09 0c0.32,0 0.63,0.04 0.91,0.12 0.29,0.08 0.56,0.19 0.81,0.33 0.25,0.14 0.47,0.31 0.67,0.52 0.2,0.21 0.38,0.43 0.51,0.67 0.14,0.25 0.25,0.51 0.33,0.8 0.08,0.29 0.12,0.58 0.12,0.89 0,0.31 -0.04,0.6 -0.12,0.89 -0.08,0.28 -0.19,0.55 -0.34,0.8 -0.14,0.24 -0.31,0.46 -0.52,0.67 -0.21,0.2 -0.43,0.37 -0.67,0.51 -0.25,0.14 -0.52,0.26 -0.81,0.34 -0.29,0.07 -0.58,0.12 -0.9,0.12l-2.09 0c-0.05,0 -0.11,-0.02 -0.14,-0.04 -0.04,-0.03 -0.06,-0.08 -0.06,-0.15l0 -6.25zm2.28 5.58c0.36,0 0.7,-0.07 1,-0.21 0.3,-0.13 0.57,-0.31 0.8,-0.54 0.22,-0.23 0.39,-0.49 0.52,-0.8 0.13,-0.31 0.19,-0.63 0.19,-0.97 0,-0.37 -0.06,-0.7 -0.2,-0.99 -0.13,-0.3 -0.3,-0.56 -0.54,-0.77 -0.22,-0.21 -0.48,-0.38 -0.79,-0.49 -0.31,-0.12 -0.63,-0.17 -0.97,-0.17l-1.43 0 0 4.93 1.41 0z"/>
    <path class="fil0" d="M244.36 107.58c-0.02,0.05 -0.05,0.1 -0.09,0.13 -0.04,0.03 -0.09,0.04 -0.14,0.04l-0.47 0c-0.14,0 -0.21,-0.05 -0.21,-0.16 0,-0.02 0,-0.04 0,-0.04 0,-0.02 0,-0.03 0.01,-0.04 0,-0.01 0,-0.02 0.01,-0.03l2.58 -6.22c0.01,-0.01 0.02,-0.03 0.03,-0.04 0.01,-0.02 0.02,-0.04 0.04,-0.05 0.01,-0.02 0.04,-0.04 0.06,-0.04 0.03,-0.01 0.06,-0.02 0.12,-0.02l0.3 0c0.04,0 0.08,0.01 0.11,0.02 0.03,0.01 0.04,0.03 0.06,0.04 0.02,0.02 0.03,0.04 0.04,0.05 0.01,0.02 0.02,0.04 0.03,0.04l2.56 6.22c0,0.02 0,0.03 0.01,0.04 0,0.02 0,0.03 0.01,0.04 0,0.01 0,0.02 0,0.03 0,0.11 -0.07,0.16 -0.21,0.16l-0.47 0c-0.06,0 -0.11,-0.02 -0.14,-0.04 -0.04,-0.03 -0.07,-0.07 -0.09,-0.13l-0.49 -1.23 -3.14 0c-0.11,0.27 -0.21,0.5 -0.29,0.72 -0.09,0.22 -0.15,0.39 -0.2,0.51zm0.84 -2.1l2.44 0 -1.21 -3.06 -1.23 3.06z"/>
    <path class="fil0" d="M251.4 101.31c0,-0.14 0.06,-0.21 0.21,-0.21l2.09 0c0.32,0 0.63,0.04 0.91,0.12 0.29,0.08 0.56,0.19 0.81,0.33 0.25,0.14 0.47,0.31 0.67,0.52 0.2,0.21 0.38,0.43 0.51,0.67 0.14,0.25 0.25,0.51 0.33,0.8 0.08,0.29 0.12,0.58 0.12,0.89 0,0.31 -0.04,0.6 -0.12,0.89 -0.08,0.28 -0.19,0.55 -0.34,0.8 -0.14,0.24 -0.31,0.46 -0.52,0.67 -0.21,0.2 -0.43,0.37 -0.67,0.51 -0.25,0.14 -0.52,0.26 -0.81,0.34 -0.29,0.07 -0.58,0.12 -0.89,0.12l-2.09 0c-0.05,0 -0.11,-0.02 -0.14,-0.04 -0.04,-0.03 -0.06,-0.08 -0.06,-0.15l0 -6.25zm2.27 5.58c0.36,0 0.7,-0.07 1,-0.21 0.31,-0.13 0.57,-0.31 0.8,-0.54 0.22,-0.23 0.39,-0.49 0.52,-0.8 0.13,-0.31 0.19,-0.63 0.19,-0.97 0,-0.37 -0.06,-0.7 -0.2,-0.99 -0.13,-0.3 -0.3,-0.56 -0.54,-0.77 -0.22,-0.21 -0.48,-0.38 -0.79,-0.49 -0.3,-0.12 -0.63,-0.17 -0.97,-0.17l-1.43 0 0 4.93 1.41 0z"/>
    <path class="fil0" d="M263.78 101.09c0.13,0 0.21,0.07 0.21,0.21l0 0.44c0,0.06 -0.02,0.11 -0.05,0.15 -0.03,0.04 -0.09,0.06 -0.16,0.06l-3.61 0 0 1.84 2.84 0c0.05,0 0.1,0.01 0.14,0.04 0.04,0.03 0.05,0.08 0.05,0.16l0 0.46c0,0.05 -0.02,0.1 -0.04,0.14 -0.04,0.04 -0.09,0.06 -0.15,0.06l-2.84 0 0 2.2 3.63 0c0.13,0 0.21,0.07 0.21,0.21l0 0.47c0,0.13 -0.06,0.2 -0.2,0.2l-4.31 0c-0.13,0 -0.2,-0.06 -0.2,-0.19l0 -6.26c0,-0.13 0.06,-0.21 0.2,-0.21l4.29 0z"/>
    <path class="fil0" d="M274.31 101.09c0.13,0 0.21,0.07 0.21,0.21l0 0.44c0,0.06 -0.02,0.11 -0.05,0.15 -0.03,0.04 -0.09,0.06 -0.16,0.06l-3.61 0 0 1.84 2.84 0c0.05,0 0.1,0.01 0.14,0.04 0.04,0.03 0.05,0.08 0.05,0.16l0 0.46c0,0.05 -0.02,0.1 -0.04,0.14 -0.04,0.04 -0.09,0.06 -0.15,0.06l-2.84 0 0 2.2 3.63 0c0.13,0 0.21,0.07 0.21,0.21l0 0.47c0,0.13 -0.06,0.2 -0.2,0.2l-4.31 0c-0.13,0 -0.2,-0.06 -0.2,-0.19l0 -6.26c0,-0.13 0.06,-0.21 0.2,-0.21l4.29 0z"/>
    <path class="fil0" d="M280.36 101.31c0,-0.14 0.06,-0.21 0.21,-0.21l2.22 0c0.3,0 0.57,0.05 0.82,0.16 0.25,0.12 0.47,0.27 0.65,0.46 0.19,0.19 0.33,0.41 0.44,0.66 0.1,0.25 0.15,0.52 0.15,0.8 0,0.28 -0.05,0.54 -0.15,0.79 -0.11,0.25 -0.25,0.47 -0.43,0.66 -0.19,0.19 -0.4,0.34 -0.65,0.45 -0.24,0.12 -0.52,0.17 -0.81,0.17l-1.59 0 0 2.31c0,0.13 -0.06,0.21 -0.2,0.21l-0.47 0c-0.13,0 -0.2,-0.07 -0.2,-0.21l0 -6.24zm3.64 1.85c0,-0.15 -0.04,-0.3 -0.1,-0.46 -0.06,-0.14 -0.14,-0.27 -0.26,-0.39 -0.11,-0.11 -0.23,-0.2 -0.38,-0.27 -0.15,-0.06 -0.3,-0.1 -0.47,-0.1l-1.57 0 0 2.43 1.57 0c0.16,0 0.31,-0.04 0.47,-0.1 0.14,-0.06 0.27,-0.15 0.39,-0.27 0.11,-0.11 0.2,-0.24 0.26,-0.39 0.06,-0.14 0.1,-0.3 0.1,-0.47z"/>
    <path class="fil0" d="M287.06 101.31c0,-0.14 0.06,-0.21 0.2,-0.21l2.59 0c0.29,0 0.57,0.05 0.83,0.17 0.25,0.11 0.47,0.26 0.67,0.46 0.19,0.19 0.34,0.42 0.45,0.67 0.11,0.26 0.16,0.54 0.16,0.83 0,0.21 -0.03,0.41 -0.09,0.6 -0.05,0.2 -0.13,0.38 -0.24,0.54 -0.11,0.17 -0.23,0.31 -0.38,0.45 -0.14,0.13 -0.3,0.23 -0.48,0.32l1.18 2.42 0 0.06c0,0.09 -0.06,0.14 -0.17,0.14l-0.54 0c-0.1,0 -0.17,-0.06 -0.22,-0.17l-1.07 -2.26c-0.03,0 -0.05,0 -0.08,0 -0.03,0 -0.07,0 -0.13,0.01 -0.04,0 -0.12,0 -0.21,0 -0.09,0 -0.2,0 -0.34,0 -0.14,0 -0.31,0 -0.52,0 -0.21,0 -0.46,0 -0.75,0l0 2.21c0,0.13 -0.07,0.21 -0.21,0.21l-0.47 0c-0.13,0 -0.2,-0.07 -0.2,-0.21l0 -6.24zm4.04 1.91c0,-0.16 -0.03,-0.32 -0.1,-0.47 -0.06,-0.15 -0.15,-0.29 -0.26,-0.4 -0.12,-0.12 -0.24,-0.21 -0.4,-0.28 -0.15,-0.07 -0.31,-0.11 -0.49,-0.11l-1.92 0 0 2.53 1.93 0c0.17,0 0.34,-0.04 0.49,-0.11 0.15,-0.06 0.28,-0.16 0.39,-0.28 0.11,-0.12 0.2,-0.25 0.26,-0.4 0.06,-0.15 0.09,-0.3 0.09,-0.47z"/>
    <path class="fil0" d="M294.84 104.42c0,0.23 0.04,0.46 0.09,0.68 0.06,0.21 0.15,0.41 0.26,0.61 0.11,0.19 0.24,0.36 0.4,0.51 0.15,0.16 0.32,0.3 0.51,0.4 0.2,0.11 0.39,0.2 0.62,0.26 0.21,0.05 0.44,0.09 0.67,0.09 0.23,0 0.47,-0.04 0.68,-0.09 0.21,-0.06 0.42,-0.15 0.61,-0.26 0.19,-0.11 0.36,-0.24 0.52,-0.4 0.15,-0.15 0.29,-0.32 0.39,-0.51 0.11,-0.2 0.2,-0.39 0.26,-0.61 0.06,-0.22 0.09,-0.45 0.09,-0.68 0,-0.35 -0.06,-0.68 -0.2,-0.99 -0.13,-0.3 -0.32,-0.57 -0.55,-0.81 -0.23,-0.23 -0.5,-0.41 -0.82,-0.55 -0.3,-0.13 -0.64,-0.21 -0.99,-0.21 -0.23,0 -0.46,0.04 -0.67,0.1 -0.22,0.05 -0.42,0.14 -0.62,0.25 -0.19,0.12 -0.36,0.25 -0.51,0.4 -0.16,0.15 -0.29,0.32 -0.4,0.51 -0.11,0.19 -0.2,0.39 -0.26,0.61 -0.05,0.22 -0.09,0.45 -0.09,0.68zm2.56 -3.41c0.31,0 0.62,0.04 0.91,0.13 0.29,0.08 0.56,0.2 0.81,0.34 0.25,0.15 0.48,0.33 0.69,0.54 0.21,0.21 0.39,0.44 0.54,0.7 0.14,0.25 0.26,0.53 0.34,0.81 0.08,0.29 0.13,0.6 0.13,0.91 0,0.31 -0.04,0.62 -0.12,0.91 -0.08,0.29 -0.2,0.56 -0.35,0.81 -0.15,0.25 -0.33,0.47 -0.54,0.69 -0.21,0.21 -0.44,0.39 -0.69,0.53 -0.25,0.15 -0.53,0.26 -0.82,0.34 -0.29,0.09 -0.59,0.13 -0.91,0.13 -0.31,0 -0.62,-0.04 -0.9,-0.13 -0.3,-0.08 -0.56,-0.19 -0.82,-0.34 -0.25,-0.15 -0.47,-0.33 -0.69,-0.54 -0.21,-0.21 -0.39,-0.44 -0.53,-0.69 -0.15,-0.25 -0.26,-0.52 -0.34,-0.81 -0.08,-0.29 -0.13,-0.59 -0.13,-0.91 0,-0.31 0.04,-0.61 0.13,-0.9 0.08,-0.29 0.19,-0.56 0.34,-0.81 0.15,-0.25 0.33,-0.48 0.54,-0.7 0.21,-0.21 0.44,-0.39 0.69,-0.53 0.26,-0.15 0.53,-0.27 0.82,-0.35 0.29,-0.08 0.59,-0.13 0.9,-0.13z"/>
    <path class="fil0" d="M307.53 105.01c0,-0.13 0.06,-0.2 0.2,-0.2l0.46 0c0.05,0 0.1,0.02 0.14,0.05 0.04,0.03 0.06,0.08 0.06,0.14l0 2c0,0.04 -0.01,0.07 -0.02,0.11 -0.02,0.03 -0.04,0.05 -0.08,0.07l-0.04 0.03c-0.28,0.21 -0.59,0.36 -0.92,0.47 -0.34,0.11 -0.71,0.16 -1.09,0.16 -0.32,0 -0.63,-0.04 -0.91,-0.13 -0.3,-0.08 -0.56,-0.19 -0.82,-0.34 -0.25,-0.15 -0.48,-0.33 -0.69,-0.54 -0.21,-0.21 -0.38,-0.44 -0.54,-0.69 -0.14,-0.25 -0.26,-0.53 -0.34,-0.81 -0.08,-0.3 -0.12,-0.59 -0.12,-0.91 0,-0.31 0.04,-0.62 0.12,-0.9 0.08,-0.29 0.2,-0.56 0.35,-0.81 0.14,-0.25 0.32,-0.48 0.53,-0.7 0.22,-0.21 0.44,-0.39 0.69,-0.54 0.26,-0.14 0.53,-0.26 0.82,-0.34 0.29,-0.08 0.6,-0.13 0.91,-0.13 0.37,0 0.73,0.05 1.07,0.17 0.34,0.11 0.65,0.27 0.95,0.47 0.04,0.03 0.06,0.05 0.08,0.09 0.02,0.03 0.04,0.06 0.04,0.09 0,0.04 -0.02,0.08 -0.04,0.11l-0.24 0.39c-0.05,0.07 -0.1,0.11 -0.15,0.11 -0.03,0 -0.04,0 -0.07,-0.01 -0.03,-0.02 -0.05,-0.03 -0.09,-0.05 -0.21,-0.15 -0.45,-0.28 -0.7,-0.36 -0.25,-0.09 -0.52,-0.13 -0.81,-0.13 -0.38,0 -0.72,0.07 -1.03,0.21 -0.31,0.14 -0.59,0.33 -0.82,0.56 -0.22,0.24 -0.41,0.51 -0.54,0.82 -0.13,0.3 -0.2,0.63 -0.2,0.96 0,0.36 0.06,0.69 0.2,1 0.13,0.3 0.31,0.57 0.55,0.81 0.23,0.22 0.5,0.4 0.81,0.54 0.3,0.13 0.63,0.2 0.98,0.2 0.21,0 0.44,-0.04 0.65,-0.11 0.22,-0.07 0.44,-0.15 0.66,-0.25l0 -1.61z"/>
    <path class="fil0" d="M310.63 101.31c0,-0.14 0.06,-0.21 0.2,-0.21l2.59 0c0.3,0 0.57,0.05 0.83,0.17 0.25,0.11 0.47,0.26 0.67,0.46 0.19,0.19 0.34,0.42 0.45,0.67 0.11,0.26 0.16,0.54 0.16,0.83 0,0.21 -0.03,0.41 -0.09,0.6 -0.05,0.2 -0.13,0.38 -0.24,0.54 -0.11,0.17 -0.23,0.31 -0.38,0.45 -0.14,0.13 -0.31,0.23 -0.48,0.32l1.18 2.42 0 0.06c0,0.09 -0.06,0.14 -0.17,0.14l-0.54 0c-0.1,0 -0.17,-0.06 -0.21,-0.17l-1.08 -2.26c-0.03,0 -0.05,0 -0.08,0 -0.03,0 -0.07,0 -0.13,0.01 -0.04,0 -0.12,0 -0.21,0 -0.09,0 -0.2,0 -0.34,0 -0.14,0 -0.31,0 -0.52,0 -0.21,0 -0.46,0 -0.75,0l0 2.21c0,0.13 -0.07,0.21 -0.21,0.21l-0.47 0c-0.13,0 -0.2,-0.07 -0.2,-0.21l0 -6.24zm4.04 1.91c0,-0.16 -0.03,-0.32 -0.1,-0.47 -0.06,-0.15 -0.15,-0.29 -0.26,-0.4 -0.12,-0.12 -0.24,-0.21 -0.4,-0.28 -0.15,-0.07 -0.31,-0.11 -0.49,-0.11l-1.92 0 0 2.53 1.93 0c0.17,0 0.34,-0.04 0.49,-0.11 0.15,-0.06 0.28,-0.16 0.39,-0.28 0.11,-0.12 0.2,-0.25 0.26,-0.4 0.06,-0.15 0.09,-0.3 0.09,-0.47z"/>
    <path class="fil0" d="M318.31 107.58c-0.02,0.05 -0.05,0.1 -0.09,0.13 -0.04,0.03 -0.09,0.04 -0.14,0.04l-0.47 0c-0.14,0 -0.21,-0.05 -0.21,-0.16 0,-0.02 0,-0.04 0,-0.04 0,-0.02 0,-0.03 0.01,-0.04 0,-0.01 0,-0.02 0.01,-0.03l2.58 -6.22c0.01,-0.01 0.02,-0.03 0.03,-0.04 0.01,-0.02 0.02,-0.04 0.04,-0.05 0.01,-0.02 0.04,-0.04 0.06,-0.04 0.03,-0.01 0.06,-0.02 0.12,-0.02l0.3 0c0.04,0 0.08,0.01 0.11,0.02 0.03,0.01 0.04,0.03 0.06,0.04 0.02,0.02 0.03,0.04 0.04,0.05 0.01,0.02 0.02,0.04 0.03,0.04l2.56 6.22c0,0.02 0,0.03 0.01,0.04 0,0.02 0,0.03 0.01,0.04 0,0.01 0,0.02 0,0.03 0,0.11 -0.07,0.16 -0.21,0.16l-0.47 0c-0.06,0 -0.11,-0.02 -0.14,-0.04 -0.04,-0.03 -0.07,-0.07 -0.09,-0.13l-0.49 -1.23 -3.14 0c-0.11,0.27 -0.21,0.5 -0.29,0.72 -0.09,0.22 -0.15,0.39 -0.2,0.51zm0.84 -2.1l2.44 0 -1.21 -3.06 -1.23 3.06z"/>
    <path class="fil0" d="M328.56 107.45c-0.06,0 -0.13,-0.05 -0.17,-0.16l-1.97 -4.76 -0.52 5.01c0,0.13 -0.07,0.2 -0.2,0.2l-0.47 0c-0.14,0 -0.21,-0.06 -0.21,-0.2l0.71 -6.25c0,-0.06 0.02,-0.11 0.06,-0.14 0.04,-0.04 0.1,-0.05 0.15,-0.05l0.69 0c0.09,0 0.16,0.05 0.2,0.16l1.94 4.76 1.96 -4.76c0.01,-0.05 0.04,-0.09 0.07,-0.12 0.03,-0.04 0.06,-0.04 0.11,-0.04l0.72 0c0.06,0 0.11,0.02 0.14,0.05 0.04,0.04 0.05,0.09 0.05,0.14l0.71 6.25c0,0.13 -0.07,0.2 -0.2,0.2l-0.47 0c-0.14,0 -0.21,-0.06 -0.21,-0.2l-0.53 -5.01 -1.97 4.76c-0.05,0.11 -0.12,0.16 -0.18,0.16l-0.44 0z"/>
    <path class="fil0" d="M335.16 107.58c-0.02,0.05 -0.05,0.1 -0.09,0.13 -0.04,0.03 -0.09,0.04 -0.14,0.04l-0.47 0c-0.14,0 -0.21,-0.05 -0.21,-0.16 0,-0.02 0,-0.04 0,-0.04 0,-0.02 0,-0.03 0.01,-0.04 0,-0.01 0,-0.02 0.01,-0.03l2.58 -6.22c0.01,-0.01 0.02,-0.03 0.03,-0.04 0.01,-0.02 0.02,-0.04 0.04,-0.05 0.01,-0.02 0.04,-0.04 0.06,-0.04 0.03,-0.01 0.06,-0.02 0.12,-0.02l0.3 0c0.04,0 0.08,0.01 0.11,0.02 0.03,0.01 0.04,0.03 0.06,0.04 0.02,0.02 0.03,0.04 0.04,0.05 0.01,0.02 0.02,0.04 0.03,0.04l2.56 6.22c0,0.02 0,0.03 0.01,0.04 0,0.02 0,0.03 0.01,0.04 0,0.01 0,0.02 0,0.03 0,0.11 -0.07,0.16 -0.21,0.16l-0.47 0c-0.06,0 -0.11,-0.02 -0.14,-0.04 -0.04,-0.03 -0.07,-0.07 -0.09,-0.13l-0.49 -1.23 -3.14 0c-0.11,0.27 -0.21,0.5 -0.29,0.72 -0.09,0.22 -0.15,0.39 -0.2,0.51zm0.84 -2.1l2.44 0 -1.21 -3.06 -1.23 3.06z"/>
    <path class="fil0" d="M347.37 101.65c0.03,0.03 0.05,0.05 0.08,0.09 0.02,0.03 0.03,0.06 0.03,0.09 0,0.04 -0.01,0.08 -0.04,0.11l-0.23 0.39c-0.05,0.07 -0.11,0.11 -0.16,0.11 -0.02,0 -0.04,0 -0.07,-0.01 -0.02,-0.02 -0.05,-0.03 -0.08,-0.05 -0.22,-0.15 -0.45,-0.27 -0.68,-0.35 -0.24,-0.08 -0.49,-0.13 -0.75,-0.14 -0.39,0 -0.74,0.07 -1.07,0.21 -0.32,0.14 -0.61,0.33 -0.84,0.56 -0.24,0.23 -0.42,0.5 -0.56,0.81 -0.13,0.31 -0.21,0.64 -0.21,0.98 0,0.37 0.07,0.7 0.21,1.01 0.13,0.31 0.32,0.57 0.56,0.8 0.23,0.22 0.5,0.4 0.81,0.53 0.3,0.13 0.63,0.19 0.97,0.19 0.12,0 0.24,-0.01 0.37,-0.03 0.12,-0.02 0.24,-0.05 0.37,-0.09 0.13,-0.04 0.26,-0.1 0.4,-0.17 0.13,-0.06 0.28,-0.15 0.44,-0.25 0.05,-0.03 0.1,-0.04 0.13,-0.04 0.05,0 0.11,0.04 0.15,0.11l0.25 0.42c0.02,0.04 0.04,0.08 0.04,0.11 0,0.07 -0.04,0.13 -0.11,0.17 -0.29,0.21 -0.59,0.37 -0.93,0.48 -0.34,0.12 -0.7,0.17 -1.09,0.17 -0.31,0 -0.62,-0.04 -0.91,-0.13 -0.29,-0.08 -0.56,-0.19 -0.81,-0.34 -0.25,-0.15 -0.47,-0.33 -0.69,-0.54 -0.21,-0.21 -0.38,-0.44 -0.53,-0.69 -0.15,-0.25 -0.26,-0.53 -0.34,-0.81 -0.08,-0.3 -0.13,-0.59 -0.13,-0.91 0,-0.31 0.04,-0.62 0.13,-0.9 0.08,-0.3 0.19,-0.56 0.34,-0.81 0.15,-0.26 0.33,-0.49 0.54,-0.7 0.21,-0.21 0.44,-0.39 0.69,-0.54 0.25,-0.14 0.53,-0.26 0.81,-0.34 0.3,-0.08 0.6,-0.13 0.91,-0.13 0.38,0 0.73,0.05 1.07,0.16 0.33,0.12 0.64,0.28 0.95,0.48zm-1.65 6.09c-0.06,0.04 -0.1,0.1 -0.1,0.16 0,0.04 0.03,0.09 0.07,0.13 0.04,0.04 0.1,0.08 0.17,0.13 0.06,0.04 0.14,0.09 0.22,0.14 0.08,0.04 0.15,0.11 0.21,0.17 0.07,0.06 0.13,0.13 0.17,0.21 0.05,0.08 0.07,0.18 0.07,0.3 0,0.1 -0.02,0.2 -0.06,0.29 -0.04,0.09 -0.11,0.18 -0.21,0.26 -0.1,0.08 -0.22,0.16 -0.38,0.24 -0.15,0.07 -0.35,0.14 -0.57,0.21l-0.02 0c-0.04,0 -0.09,-0.02 -0.12,-0.05 -0.04,-0.04 -0.06,-0.08 -0.09,-0.13 -0.03,-0.05 -0.04,-0.1 -0.05,-0.15 -0.01,-0.05 -0.02,-0.09 -0.02,-0.12 0,-0.04 0.02,-0.07 0.05,-0.1 0.51,-0.13 0.76,-0.28 0.76,-0.47 0,-0.07 -0.02,-0.13 -0.06,-0.18 -0.04,-0.05 -0.11,-0.1 -0.17,-0.14 -0.07,-0.04 -0.14,-0.1 -0.21,-0.14 -0.08,-0.04 -0.15,-0.09 -0.22,-0.14 -0.06,-0.05 -0.12,-0.12 -0.16,-0.18 -0.04,-0.07 -0.07,-0.14 -0.07,-0.23 0,-0.04 0.01,-0.06 0.02,-0.1 0.01,-0.04 0.03,-0.08 0.07,-0.12l0.69 0z"/>
    <path class="fil0" d="M350.09 107.58c-0.02,0.05 -0.05,0.1 -0.09,0.13 -0.04,0.03 -0.09,0.04 -0.14,0.04l-0.47 0c-0.14,0 -0.21,-0.05 -0.21,-0.16 0,-0.02 0,-0.04 0,-0.04 0,-0.02 0,-0.03 0.01,-0.04 0,-0.01 0,-0.02 0.01,-0.03l2.58 -6.22c0.01,-0.01 0.02,-0.03 0.03,-0.04 0.01,-0.02 0.02,-0.04 0.04,-0.05 0.01,-0.02 0.04,-0.04 0.06,-0.04 0.03,-0.01 0.06,-0.02 0.12,-0.02l0.29 0c0.04,0 0.08,0.01 0.11,0.02 0.03,0.01 0.04,0.03 0.06,0.04 0.02,0.02 0.03,0.04 0.04,0.05 0.01,0.02 0.02,0.04 0.03,0.04l2.56 6.22c0,0.02 0,0.03 0.01,0.04 0,0.02 0,0.03 0.01,0.04 0,0.01 0,0.02 0,0.03 0,0.11 -0.07,0.16 -0.21,0.16l-0.47 0c-0.06,0 -0.11,-0.02 -0.14,-0.04 -0.04,-0.03 -0.07,-0.07 -0.09,-0.13l-0.49 -1.23 -3.14 0c-0.11,0.27 -0.21,0.5 -0.29,0.72 -0.09,0.22 -0.15,0.39 -0.2,0.51zm0.84 -2.1l2.44 0 -1.21 -3.06 -1.23 3.06zm2.3 -5.93c0.01,-0.01 0.02,-0.02 0.03,-0.02 0.01,-0.01 0.02,-0.01 0.04,-0.01 0.02,0 0.04,0.02 0.08,0.04 0.04,0.02 0.07,0.05 0.12,0.09 0.04,0.03 0.07,0.06 0.1,0.1 0.03,0.04 0.04,0.07 0.04,0.09 0,0.01 0,0.02 0,0.04 0,0.02 -0.01,0.03 -0.02,0.04l-0.1 0.14c-0.12,0.14 -0.24,0.24 -0.39,0.3 -0.13,0.06 -0.29,0.09 -0.46,0.09 -0.08,0 -0.17,-0.02 -0.26,-0.05 -0.1,-0.04 -0.18,-0.08 -0.26,-0.13l-0.22 -0.15c-0.04,-0.02 -0.09,-0.04 -0.13,-0.06 -0.04,-0.02 -0.09,-0.03 -0.14,-0.03 -0.06,0 -0.12,0.02 -0.17,0.04 -0.04,0.03 -0.09,0.05 -0.13,0.09 -0.02,0.02 -0.04,0.04 -0.05,0.06 -0.02,0.03 -0.04,0.05 -0.06,0.08 -0.03,0.02 -0.04,0.04 -0.07,0.06 -0.03,0.02 -0.05,0.03 -0.07,0.03 -0.01,0 -0.03,-0.01 -0.06,-0.04 -0.04,-0.02 -0.08,-0.05 -0.13,-0.08 -0.04,-0.04 -0.08,-0.07 -0.12,-0.11 -0.03,-0.04 -0.04,-0.07 -0.04,-0.1 0,-0.02 0,-0.04 0.01,-0.05 0.1,-0.18 0.23,-0.31 0.39,-0.41 0.16,-0.11 0.35,-0.15 0.56,-0.15 0.09,0.01 0.18,0.03 0.27,0.05 0.09,0.03 0.17,0.07 0.25,0.13l0.23 0.15c0.09,0.06 0.18,0.09 0.28,0.09 0.05,0 0.11,-0.01 0.16,-0.04 0.04,-0.02 0.09,-0.04 0.13,-0.08 0.01,-0.01 0.03,-0.03 0.04,-0.05 0.03,-0.03 0.04,-0.04 0.06,-0.07 0.02,-0.02 0.04,-0.04 0.05,-0.05 0.02,-0.02 0.04,-0.03 0.04,-0.03z"/>
    <path class="fil0" d="M357.76 104.42c0,0.23 0.04,0.46 0.09,0.68 0.06,0.21 0.15,0.41 0.26,0.61 0.11,0.19 0.24,0.36 0.4,0.51 0.15,0.16 0.32,0.3 0.51,0.4 0.2,0.11 0.39,0.2 0.62,0.26 0.21,0.05 0.44,0.09 0.67,0.09 0.23,0 0.47,-0.04 0.68,-0.09 0.21,-0.06 0.42,-0.15 0.61,-0.26 0.19,-0.11 0.36,-0.24 0.52,-0.4 0.15,-0.15 0.29,-0.32 0.39,-0.51 0.11,-0.2 0.2,-0.39 0.26,-0.61 0.06,-0.22 0.09,-0.45 0.09,-0.68 0,-0.35 -0.06,-0.68 -0.2,-0.99 -0.13,-0.3 -0.32,-0.57 -0.55,-0.81 -0.23,-0.23 -0.5,-0.41 -0.82,-0.55 -0.3,-0.13 -0.64,-0.21 -0.99,-0.21 -0.23,0 -0.46,0.04 -0.67,0.1 -0.22,0.05 -0.42,0.14 -0.62,0.25 -0.19,0.12 -0.36,0.25 -0.51,0.4 -0.16,0.15 -0.3,0.32 -0.4,0.51 -0.11,0.19 -0.2,0.39 -0.26,0.61 -0.05,0.22 -0.09,0.45 -0.09,0.68zm2.56 -3.41c0.31,0 0.62,0.04 0.91,0.13 0.29,0.08 0.56,0.2 0.81,0.34 0.25,0.15 0.48,0.33 0.69,0.54 0.21,0.21 0.39,0.44 0.54,0.7 0.14,0.25 0.26,0.53 0.34,0.81 0.08,0.29 0.13,0.6 0.13,0.91 0,0.31 -0.04,0.62 -0.12,0.91 -0.08,0.29 -0.2,0.56 -0.35,0.81 -0.15,0.25 -0.33,0.47 -0.54,0.69 -0.21,0.21 -0.44,0.39 -0.69,0.53 -0.25,0.15 -0.53,0.26 -0.82,0.34 -0.29,0.09 -0.59,0.13 -0.91,0.13 -0.31,0 -0.62,-0.04 -0.9,-0.13 -0.3,-0.08 -0.56,-0.19 -0.82,-0.34 -0.25,-0.15 -0.47,-0.33 -0.69,-0.54 -0.21,-0.21 -0.39,-0.44 -0.53,-0.69 -0.15,-0.25 -0.26,-0.52 -0.34,-0.81 -0.08,-0.29 -0.13,-0.59 -0.13,-0.91 0,-0.31 0.04,-0.61 0.13,-0.9 0.08,-0.29 0.19,-0.56 0.34,-0.81 0.15,-0.25 0.33,-0.48 0.54,-0.7 0.21,-0.21 0.44,-0.39 0.69,-0.53 0.26,-0.15 0.53,-0.27 0.82,-0.35 0.29,-0.08 0.59,-0.13 0.9,-0.13z"/>
    <path class="fil0" d="M369.76 101.31c0,-0.14 0.06,-0.21 0.21,-0.21l2.09 0c0.32,0 0.63,0.04 0.91,0.12 0.29,0.08 0.56,0.19 0.81,0.33 0.25,0.14 0.47,0.31 0.67,0.52 0.2,0.21 0.38,0.43 0.51,0.67 0.14,0.25 0.25,0.51 0.33,0.8 0.08,0.29 0.12,0.58 0.12,0.89 0,0.31 -0.04,0.6 -0.12,0.89 -0.08,0.28 -0.19,0.55 -0.34,0.8 -0.14,0.24 -0.31,0.46 -0.52,0.67 -0.21,0.2 -0.43,0.37 -0.67,0.51 -0.25,0.14 -0.52,0.26 -0.81,0.34 -0.29,0.07 -0.58,0.12 -0.9,0.12l-2.09 0c-0.05,0 -0.11,-0.02 -0.14,-0.04 -0.04,-0.03 -0.06,-0.08 -0.06,-0.15l0 -6.25zm2.28 5.58c0.36,0 0.7,-0.07 1,-0.21 0.3,-0.13 0.57,-0.31 0.8,-0.54 0.22,-0.23 0.39,-0.49 0.52,-0.8 0.13,-0.31 0.19,-0.63 0.19,-0.97 0,-0.37 -0.06,-0.7 -0.2,-0.99 -0.13,-0.3 -0.3,-0.56 -0.54,-0.77 -0.22,-0.21 -0.48,-0.38 -0.79,-0.49 -0.31,-0.12 -0.63,-0.17 -0.97,-0.17l-1.43 0 0 4.93 1.41 0z"/>
    <path class="fil0" d="M377.66 101.29c0,-0.05 0.02,-0.1 0.04,-0.14 0.04,-0.04 0.09,-0.05 0.15,-0.05l0.47 0c0.05,0 0.1,0.02 0.14,0.05 0.04,0.04 0.06,0.08 0.06,0.14l0 6.25c0,0.13 -0.07,0.2 -0.21,0.2l-0.47 0c-0.13,0 -0.2,-0.06 -0.2,-0.2l0 -6.25z"/>
    <path class="fil0" d="M385.44 105.01c0,-0.13 0.06,-0.2 0.2,-0.2l0.46 0c0.05,0 0.1,0.02 0.14,0.05 0.04,0.03 0.06,0.08 0.06,0.14l0 2c0,0.04 -0.01,0.07 -0.02,0.11 -0.02,0.03 -0.04,0.05 -0.08,0.07l-0.04 0.03c-0.28,0.21 -0.59,0.36 -0.92,0.47 -0.34,0.11 -0.71,0.16 -1.09,0.16 -0.32,0 -0.63,-0.04 -0.91,-0.13 -0.3,-0.08 -0.56,-0.19 -0.82,-0.34 -0.25,-0.15 -0.48,-0.33 -0.69,-0.54 -0.21,-0.21 -0.38,-0.44 -0.54,-0.69 -0.14,-0.25 -0.26,-0.53 -0.34,-0.81 -0.08,-0.3 -0.12,-0.59 -0.12,-0.91 0,-0.31 0.04,-0.62 0.12,-0.9 0.08,-0.29 0.2,-0.56 0.35,-0.81 0.14,-0.25 0.32,-0.48 0.53,-0.7 0.22,-0.21 0.44,-0.39 0.69,-0.54 0.26,-0.14 0.53,-0.26 0.82,-0.34 0.29,-0.08 0.6,-0.13 0.91,-0.13 0.37,0 0.73,0.05 1.07,0.17 0.34,0.11 0.65,0.27 0.95,0.47 0.04,0.03 0.06,0.05 0.08,0.09 0.02,0.03 0.04,0.06 0.04,0.09 0,0.04 -0.02,0.08 -0.04,0.11l-0.24 0.39c-0.05,0.07 -0.1,0.11 -0.15,0.11 -0.03,0 -0.04,0 -0.07,-0.01 -0.03,-0.02 -0.05,-0.03 -0.09,-0.05 -0.21,-0.15 -0.45,-0.28 -0.7,-0.36 -0.25,-0.09 -0.52,-0.13 -0.81,-0.13 -0.38,0 -0.72,0.07 -1.03,0.21 -0.31,0.14 -0.59,0.33 -0.82,0.56 -0.22,0.24 -0.41,0.51 -0.54,0.82 -0.13,0.3 -0.2,0.63 -0.2,0.96 0,0.36 0.06,0.69 0.2,1 0.13,0.3 0.31,0.57 0.55,0.81 0.23,0.22 0.5,0.4 0.81,0.54 0.3,0.13 0.63,0.2 0.98,0.2 0.21,0 0.44,-0.04 0.65,-0.11 0.22,-0.07 0.44,-0.15 0.66,-0.25l0 -1.61z"/>
    <path class="fil0" d="M388.54 101.29c0,-0.05 0.02,-0.1 0.04,-0.14 0.04,-0.04 0.09,-0.05 0.15,-0.05l0.47 0c0.05,0 0.1,0.02 0.14,0.05 0.04,0.04 0.06,0.08 0.06,0.14l0 6.25c0,0.13 -0.07,0.2 -0.21,0.2l-0.47 0c-0.13,0 -0.2,-0.06 -0.2,-0.2l0 -6.25z"/>
    <path class="fil0" d="M396.16 101.09c0.05,0 0.1,0.02 0.14,0.04 0.04,0.04 0.06,0.09 0.07,0.15l0 0.45c0,0.06 -0.02,0.12 -0.05,0.16 -0.04,0.04 -0.09,0.06 -0.16,0.06l-1.86 0 0 5.57c0,0.05 -0.02,0.11 -0.05,0.14 -0.04,0.04 -0.09,0.06 -0.15,0.06l-0.46 0c-0.05,0 -0.1,-0.02 -0.14,-0.05 -0.04,-0.04 -0.06,-0.09 -0.06,-0.15l0 -5.57 -1.87 0c-0.06,0 -0.11,-0.02 -0.14,-0.05 -0.04,-0.04 -0.06,-0.09 -0.06,-0.17l0 -0.45c0,-0.06 0.02,-0.11 0.06,-0.14 0.04,-0.04 0.08,-0.05 0.14,-0.05l4.6 0z"/>
    <path class="fil0" d="M398.03 107.58c-0.02,0.05 -0.05,0.1 -0.09,0.13 -0.04,0.03 -0.09,0.04 -0.14,0.04l-0.47 0c-0.14,0 -0.21,-0.05 -0.21,-0.16 0,-0.02 0,-0.04 0,-0.04 0,-0.02 0,-0.03 0.01,-0.04 0,-0.01 0,-0.02 0.01,-0.03l2.58 -6.22c0.01,-0.01 0.02,-0.03 0.03,-0.04 0.01,-0.02 0.02,-0.04 0.04,-0.05 0.01,-0.02 0.04,-0.04 0.06,-0.04 0.03,-0.01 0.06,-0.02 0.12,-0.02l0.3 0c0.04,0 0.08,0.01 0.11,0.02 0.03,0.01 0.04,0.03 0.06,0.04 0.02,0.02 0.03,0.04 0.04,0.05 0.01,0.02 0.02,0.04 0.03,0.04l2.56 6.22c0,0.02 0,0.03 0.01,0.04 0,0.02 0,0.03 0.01,0.04 0,0.01 0,0.02 0,0.03 0,0.11 -0.07,0.16 -0.21,0.16l-0.47 0c-0.06,0 -0.11,-0.02 -0.14,-0.04 -0.04,-0.03 -0.07,-0.07 -0.09,-0.13l-0.49 -1.23 -3.14 0c-0.11,0.27 -0.21,0.5 -0.29,0.72 -0.09,0.22 -0.15,0.39 -0.2,0.51zm0.84 -2.1l2.44 0 -1.21 -3.06 -1.23 3.06z"/>
    <path class="fil0" d="M409.08 106.88c0.05,0 0.1,0.02 0.13,0.05 0.04,0.04 0.06,0.09 0.06,0.15l0 0.47c0,0.05 -0.02,0.1 -0.05,0.13 -0.04,0.05 -0.09,0.06 -0.14,0.06l-3.81 0c-0.13,0 -0.2,-0.06 -0.2,-0.2l0 -6.26c0,-0.05 0.02,-0.1 0.05,-0.14 0.04,-0.04 0.09,-0.05 0.15,-0.05l0.47 0c0.05,0 0.11,0.02 0.14,0.04 0.04,0.04 0.05,0.09 0.05,0.15l0 5.59 3.14 0z"/>
    <path class="fil1" d="M312.77 45.15c-0.03,1.19 1.07,0.96 2.28,1.14 4.52,0.66 7.97,4.51 8.37,9.05 0.02,0.23 0.08,1.27 0.15,1.46 0.38,1.09 1.78,0.54 1.8,-0.12 0.08,-3.7 -0.89,-6.26 -3.34,-8.82 -0.24,-0.25 -0.44,-0.49 -0.69,-0.71 -2.59,-2.28 -8.53,-4.12 -8.58,-1.99z"/>
    <path class="fil1" d="M133.71 25.55l13.95 0 6.24 -7.41 0 0 6.98 -8.27 -0.01 0 -13.94 0 -0.01 0 -13.21 15.67zm21.33 -6.06l5.11 6.06 13.95 0 -12.08 -14.33 -6.98 8.27z"/>
    <path class="fil1" d="M322.57 68.59c-2.1,3.3 -0.95,6.14 -1.78,7.18 -0.18,0.23 -0.47,0.37 -0.91,0.41 -0.11,0.01 -0.22,0.01 -0.35,0.01l-13.07 -0.3 -0.14 -0c-0.79,-0.02 -1.11,-0.27 -1.24,-0.75 -0.23,-0.87 0.18,-2.49 -0.46,-4.84 -0.89,-3.24 -1.72,-3.03 -2.86,-4.59 -1.77,-2.41 -3.25,-4.87 -3.58,-8 -0.05,-0.47 -0.07,-0.95 -0.07,-1.45l0.03 -1.63c0.34,-4.37 1.9,-7.35 4.95,-10.27 2.18,-2.08 4.49,-3.13 7.36,-3.79 6.8,-1.57 13.99,2.22 17,8.62 1.39,2.95 1.49,4.65 1.42,7.8 -0.01,0.24 -0.02,0.49 -0.05,0.73 -0.35,3.19 -2.41,6.95 -4.53,8.96 -0.71,0.67 -1.17,1.05 -1.72,1.91zm-42.58 -7.58c0,18.93 13.95,32.88 33.51,32.88 19.57,0 33.51,-13.95 33.51,-32.88 0,-18.93 -13.95,-32.88 -33.51,-32.88 -19.57,0 -33.51,13.95 -33.51,32.88zm38.94 16.11c3.43,0.08 3.06,4.75 0.13,4.68l-12.52 -0.29c-0.62,-0.01 -1.22,-0.37 -1.54,-0.71 -0.25,-0.27 -0.65,-1.1 -0.63,-1.57 0.03,-1.31 1.1,-2.43 2.4,-2.4l2.49 0.06 7.7 0.18 1.97 0.05z"/>
    <path class="fil1" d="M319.35 79.12c-1.23,-0.32 -10.49,-0.36 -12.51,-0.41 -0.27,-0.01 -0.47,0.18 -0.48,0.46 -0.01,0.27 0.07,0.35 0.34,0.36l12.28 0.28c0.42,0.01 0.36,-0.29 0.37,-0.69z"/>
    <path class="fil1" d="M323.42 55.33c0.02,0.23 0.08,1.27 0.15,1.46 0.38,1.09 1.78,0.54 1.8,-0.12 0.08,-3.7 -0.89,-6.26 -3.34,-8.82 -0.24,-0.25 -0.44,-0.49 -0.69,-0.71 -0.78,-0.68 -1.85,-1.33 -2.98,-1.83 -2.27,-1.02 -4.75,-1.5 -5.42,-0.67 -0.11,0.14 -0.18,0.31 -0.18,0.52 -0.03,1.19 1.07,0.96 2.28,1.14 4.52,0.66 7.97,4.51 8.37,9.05z"/>
    <g>
     <path class="fil1" d="M65.46 0c26.5,0 49.06,16.89 57.5,40.49l-32.46 0c-5.94,-7.23 -14.95,-11.83 -25.03,-11.83 -17.89,0 -32.39,14.5 -32.39,32.39 0,1.05 0.05,2.1 0.15,3.12l-28.38 4.13c-0.28,-2.38 -0.43,-4.8 -0.43,-7.25 0,-33.72 27.33,-61.05 61.05,-61.05zm2.48 93.35c7.45,-0.56 14.19,-3.65 19.39,-8.4 -0.04,0.04 -0.09,0.08 -0.13,0.12l-21.73 -24.02 32.39 0 0 0.02 28.66 0c-0.01,32.73 -25.78,59.44 -58.15,60.96l-0.42 -28.68z"/>
     <path class="fil1" d="M-0 143.49l21.22 -28.97c-1.3,-1.7 -2.7,-3.18 -3.14,-5.99 -1.52,-9.69 9.38,-15.85 16.85,-10.41 3.46,2.52 5.1,7.05 4.06,11.26 -0.64,2.6 -2.18,4.74 -4.4,6.25 -4.13,2.8 -7.56,1.8 -11.02,0.61l-21.22 28.97 61.14 -22.61 -0.43 -29.09c-13.92,-1.15 -25.64,-11.05 -29.15,-24.51l-28.97 4.22 -4.95 70.28z"/>
     <path class="fil1" d="M20.76 107.4l0.18 1.16c0.58,3.68 4.65,6.65 8.33,6.07 3.4,-0.53 5.85,-2.08 6.87,-5.27 1.11,-3.45 0,-7.04 -2.97,-9.12 -5.45,-3.82 -13.42,0.76 -12.42,7.16z"/>
     <path class="fil1" d="M65.46 0c26.5,0 49.06,16.89 57.5,40.49l-32.46 0c-5.94,-7.23 -14.95,-11.83 -25.03,-11.83 -17.89,0 -32.39,14.5 -32.39,32.39 0,1.05 0.05,2.1 0.15,3.12l-28.38 4.13c-0.28,-2.38 -0.43,-4.8 -0.43,-7.25 0,-33.72 27.33,-61.05 61.05,-61.05zm2.48 93.35c7.45,-0.56 14.19,-3.65 19.39,-8.4 -0.04,0.04 -0.09,0.08 -0.13,0.12l-21.73 -24.02 32.39 0 0 0.02 28.66 0c-0.01,32.73 -25.78,59.44 -58.15,60.96l-0.42 -28.68z"/>
    </g>
   </g>
  </g>
 </g>
</svg>
