<?xml version="1.0" encoding="UTF-8"?>
<!DOCTYPE svg PUBLIC "-//W3C//DTD SVG 1.1//EN" "http://www.w3.org/Graphics/SVG/1.1/DTD/svg11.dtd">
<!-- Creator: CorelDRAW -->
<svg xmlns="http://www.w3.org/2000/svg" xml:space="preserve" width="43.3493mm" height="43.3493mm" version="1.1" style="shape-rendering:geometricPrecision; text-rendering:geometricPrecision; image-rendering:optimizeQuality; fill-rule:evenodd; clip-rule:evenodd"
viewBox="0 0 4334.92 4334.92"
 xmlns:xlink="http://www.w3.org/1999/xlink"
 xmlns:xodm="http://www.corel.com/coreldraw/odm/2003">
 <defs>
  <style type="text/css">
   <![CDATA[
    .fil0 {fill:black}
    .fil1 {fill:#F8DB35;fill-rule:nonzero}
   ]]>
  </style>
 </defs>
 <g id="Camada_x0020_1">
  <metadata id="CorelCorpID_0Corel-Layer"/>
  <rect class="fil0" x="-0" y="-0" width="4334.92" height="4334.92"/>
  <path class="fil1" d="M2414.96 2682.63l-1.42 0 0 13.92c-1.01,2.94 -1.51,5.28 -1.51,7.21 -0.92,13 -3.36,23.56 -7.13,32.2l-2.43 10.06 -2.85 9.64 -2.94 7.21 -1.42 3.78c-21.63,51.89 -53.75,92.22 -97.01,120.98 -46.03,32.2 -96.5,48.05 -152.18,48.05 -71.01,0 -132.47,-24.49 -183.87,-72.95 -51.9,-48.96 -79.73,-109 -83.09,-180.1l-406.64 237.7c18.69,63.81 67.66,135.83 146.47,216.49 120.99,120.06 281.8,182.02 482.44,185.88l74.46 0c89.79,0 179.59,-16.35 268.38,-48.04 98.94,-35.55 176.24,-81.67 232.42,-137.84 123.84,-125.77 185.8,-275.51 185.8,-450.33l0 -527.13 -356.59 0 -967.98 0 -0.09 0 0 398.6 877.18 0 0 124.67zm447.48 -1004.03l0 -666.4 -450.41 1.43 0 664.97 450.41 0zm-899.32 0l0 -664.47 -449.82 0 0 664.47 449.82 0z"/>
 </g>
</svg>
